<?xml version="1.0" encoding="utf-8"?>
<!-- Generator: Adobe Illustrator 25.2.1, SVG Export Plug-In . SVG Version: 6.00 Build 0)  -->
<svg version="1.1" id="Layer_1" xmlns="http://www.w3.org/2000/svg" xmlns:xlink="http://www.w3.org/1999/xlink" x="0px" y="0px"
	 viewBox="0 0 801.5 692.8" style="enable-background:new 0 0 801.5 692.8;" xml:space="preserve">
<style type="text/css">
	.st0{fill:#FFFFFF;}
</style>
<image style="overflow:visible;enable-background:new    ;" width="864" height="776" xlink:href="23F37C1A.jpeg"  transform="matrix(1 0 0 1 -3015.7432 193.095)">
</image>
<g>
	<path class="st0" d="M391.7,0L0,682.1l395.2-231.2L391.7,0z M338.5,409.5l-132.6,71.3c-1.5,0.8-3.1-0.9-2.3-2.3L332,255.4
		c0.4-0.6,1.3-0.4,1.3,0.3l5.6,153.2C338.9,409.1,338.8,409.4,338.5,409.5z"/>
	<path class="st0" d="M801.5,682.1L404.3,0l2,450.8L801.5,682.1z M482.8,250.4l134.8,235.8c0.8,1.5-0.8,3.2-2.3,2.3l-132.8-73.4
		c-0.2-0.1-0.4-0.4-0.4-0.7l-0.6-163.7C481.5,250,482.5,249.8,482.8,250.4z"/>
	<path class="st0" d="M5.1,692.8h788.4L400.7,463.7L5.1,692.8z M402.6,537.7l141,83.6c0.6,0.4,0.3,1.3-0.4,1.3l-286.9,2
		c-1.7,0-2.3-2.3-0.9-3.2l146.4-83.7C402,537.6,402.3,537.6,402.6,537.7z"/>
</g>
</svg>
